<svg xmlns="http://www.w3.org/2000/svg" width="28" height="39" fill="#fff" xmlns:v="https://vecta.io/nano"><path d="M20.163 27.206l1.776-2.88 3.203-1.093.355-3.365 2.41-2.373-1.146-3.185 1.146-3.185-2.41-2.372-.355-3.365-3.203-1.093-1.775-2.88-3.358.405L13.954 0 11.1 1.82l-3.357-.405-1.775 2.88-3.204 1.093-.355 3.365L0 11.126l1.146 3.184L0 17.495l2.41 2.373.355 3.365 3.204 1.092 1.775 2.88 3.357-.404 2.853 1.82 2.852-1.82 3.357.405zM4.14 14.31a9.83 9.83 0 0 1 9.814-9.813c5.41 0 9.813 4.402 9.813 9.813s-4.402 9.814-9.813 9.814A9.83 9.83 0 0 1 4.14 14.31z"/><path d="M13.954 6.773a7.55 7.55 0 0 0-7.538 7.538 7.55 7.55 0 0 0 7.538 7.537 7.55 7.55 0 0 0 7.537-7.537 7.55 7.55 0 0 0-7.537-7.538zm-3.389 22.385l-3.995.482-2.11-3.425-.717-.244-3.095 9.672 5.571-.307 4.359 3.483 2.564-8.016-2.577-1.645zm12.882-2.943l-2.11 3.425-3.994-.482-2.578 1.645 2.565 8.016 4.358-3.483 5.571.307-3.094-9.672-.718.244z"/></svg>