<svg xmlns="http://www.w3.org/2000/svg" width="26" height="26" fill="none" xmlns:v="https://vecta.io/nano"><path fill="#99a4bf" d="M25.368 11.468l-1.773-1.773c-.421-.421-.766-1.253-.766-1.85V5.34a2.173 2.173 0 0 0-2.167-2.168h-2.508c-.596 0-1.428-.346-1.85-.766L14.533.632a2.173 2.173 0 0 0-3.064 0L9.695 2.406a3.03 3.03 0 0 1-1.85.765H5.338A2.173 2.173 0 0 0 3.171 5.34v2.507c0 .594-.345 1.428-.765 1.849L.632 11.468a2.174 2.174 0 0 0 0 3.065l1.774 1.773c.42.421.765 1.255.765 1.85v2.507c0 1.191.976 2.167 2.167 2.167h2.507c.596 0 1.429.345 1.85.765l1.773 1.774a2.175 2.175 0 0 0 3.064 0l1.773-1.774a3.02 3.02 0 0 1 1.849-.765h2.508a2.173 2.173 0 0 0 2.167-2.167v-2.508c0-.597.345-1.428.766-1.849l1.773-1.773a2.176 2.176 0 0 0 0-3.065zM11.28 17.875l-4.78-4.78 1.531-1.533 3.25 3.25 6.687-6.687L19.5 9.657l-8.22 8.218z"/></svg>