<svg xmlns="http://www.w3.org/2000/svg" width="150" height="27" fill="#fff" xmlns:v="https://vecta.io/nano"><path d="M35.253 10.065l.245-.636c.93.473 2.12.897 3.621.897 2.284 0 3.36-1.223 3.36-2.48 0-.766-.342-1.32-.994-1.663-.49-.262-1.37-.425-2.398-.539-1.077-.114-1.974-.261-2.61-.587-.995-.505-1.354-1.223-1.354-2.186C35.123 1.256 36.69 0 39.055 0c1.419 0 2.577.31 3.507.783l-.229.62a7.605 7.605 0 0 0-3.278-.734c-2.072 0-3.197.995-3.197 2.202 0 .718.261 1.24.995 1.614.522.262 1.37.376 2.365.49 1.077.13 2.056.31 2.594.604.913.49 1.403 1.223 1.403 2.267 0 1.615-1.403 3.148-4.094 3.148-1.631 0-2.822-.376-3.866-.93l-.002.001zM52.886.072v10.732h-.734V.072h.734zM65.885.74h-4.632V.07h9.999v.67h-4.633v10.064h-.734V.74zm29.392 9.325l.245-.636c.93.473 2.12.897 3.621.897 2.284 0 3.361-1.223 3.361-2.48 0-.766-.343-1.32-.995-1.663-.49-.262-1.37-.425-2.398-.539-1.077-.114-1.974-.261-2.61-.587-.995-.505-1.354-1.223-1.354-2.186C95.147 1.256 96.713 0 99.078 0c1.42 0 2.578.31 3.507.783l-.228.62a7.604 7.604 0 0 0-3.278-.734c-2.072 0-3.197.995-3.197 2.202 0 .718.261 1.24.995 1.614.522.262 1.37.376 2.365.49 1.077.13 2.056.31 2.594.604.913.49 1.403 1.223 1.403 2.267 0 1.615-1.403 3.148-4.094 3.148-1.632 0-2.822-.376-3.866-.93l-.002.001zm-57.87 10.976v2.61h6.051v1.99h-8.335V14.908h8.041v2.007h-5.757v2.364h5.073v1.762h-5.073zm12.396-.913l-3.752-5.22h2.708l2.675 3.686h.049l.636-1.06 1.892-2.626h2.66l-3.769 5.252 3.931 5.48h-2.74l-2.822-3.882h-.032l-.734 1.191-1.925 2.692h-2.69l3.915-5.514h-.001zm24.58.913v2.61h6.051v1.99H72.1V14.908h8.04v2.007h-5.757v2.364h5.073v1.762h-5.073zm9.427-6.133h4.095c2.969 0 4.29 1.468 4.29 3.475 0 1.207-.505 2.349-1.728 2.936v.049l2.642 4.273h-2.56l-2.447-3.882h-2.007v3.882h-2.284V14.908zm3.932 5.121c1.533 0 2.186-.473 2.186-1.598 0-.913-.456-1.566-2.055-1.566h-1.779v3.165h1.648zm10.7-5.121v10.733h-2.284V14.908h2.284zm6.491 6.133v2.61h6.052v1.99h-8.335V14.908h8.041v2.007h-5.758v2.364h5.073v1.762h-5.073zm17.322-6.133h2.284v10.733h-2.137l-5.768-7.051.011 7.05h-2.284V14.909h2.17l5.717 6.995.008-6.995h-.001zm5.741 5.465c0-3.116 2.349-5.66 5.873-5.66 2.235 0 3.36.799 4.126 1.403l-.897 1.81c-.865-.734-1.876-1.19-3.132-1.19-2.235 0-3.572 1.614-3.572 3.62s1.337 3.458 3.67 3.458c1.631 0 2.691-.832 3.393-1.451l.897 1.664c-.587.652-2.071 1.81-4.453 1.81-4.029 0-5.905-2.528-5.905-5.464zm15.952.668v2.61H150v1.99h-8.335V14.908h8.041v2.007h-5.758v2.364h5.073v1.762h-5.073zM.212 9.923l3.404 9.23L6.53 16.24l2.913-2.913-9.23-3.404zm25.973-.213L0 .052l2.071 5.616 15.243 5.622-5.65 5.65-3.97 3.97 1.964 5.327 6.278-6.278 2.896 2.896a2.849 2.849 0 0 0 4.03 0 2.766 2.766 0 0 0 0-3.911l-2.955-2.955 6.278-6.278zm54.168-4.158h6.018v-.636h-6.018V.74h6.671V.072H79.62v5.48h.734zm1.257 4.584h-1.991v.668h7.732v-.668H81.61zm-17.6 4.772h-3.915v1.99h3.882c2.072 0 2.398.93 2.398 1.778 0 1.224-.653 1.876-2.25 1.876h-4.03v5.09h2.284v-3.28h1.941c2.855 0 4.323-1.353 4.323-3.734 0-2.154-1.435-3.72-4.633-3.72zm52.569-9.476c.034.094.098.514.098.514h.034l.094-.522.329-1.017h.577l-.676 2.112h-.568l-.317-.936-.107-.44h-.017l-.107.44-.316.936h-.556l-.688-2.112h.577l.329 1.017c.034.107.09.522.09.522h.038l.099-.514.32-.957h.445l.32.957h.002zm11.976 0c.034.094.099.514.099.514h.033l.094-.522.329-1.017h.577l-.675 2.112h-.569l-.316-.936-.107-.44h-.017l-.107.44-.317.936h-.556l-.688-2.112h.577l.329 1.017c.034.107.09.522.09.522h.039l.098-.514.32-.957h.445l.321.957h.001zm11.977 0c.033.094.098.514.098.514h.034l.093-.522.33-1.017h.577l-.676 2.112h-.568l-.317-.936-.107-.44h-.017l-.107.44-.317.936H139l-.688-2.112h.577l.329 1.017c.034.107.089.522.089.522h.039l.098-.514.321-.957h.445l.32.957h.002z"/></svg>