<svg xmlns="http://www.w3.org/2000/svg" width="231" height="231" fill="none" xmlns:v="https://vecta.io/nano"><path fill="url(#A)" d="m168.505 137.709-.087.722c-21.165-10.549-23.379-11.955-26.112-7.854-1.896 2.839-7.421 9.278-9.086 11.184-1.685 1.877-3.359 2.021-6.218.722-2.888-1.444-12.156-4.476-23.129-14.293-8.547-7.652-14.284-17.037-15.978-19.924-2.82-4.87 3.08-5.563 8.451-15.727.963-2.022.472-3.61-.24-5.044-.722-1.444-6.468-15.592-8.875-21.233-2.31-5.62-4.687-4.908-6.468-4.908-5.544-.481-9.596-.405-13.167 3.31-15.534 17.076-11.617 34.69 1.675 53.419 26.122 34.188 40.04 40.483 65.489 49.223 6.872 2.185 13.138 1.877 18.095 1.164 5.524-.876 17.007-6.939 19.404-13.725 2.454-6.786 2.454-12.416 1.732-13.716-.712-1.299-2.599-2.021-5.486-3.32Z"/><path fill="url(#B)" d="M197.505 33.2C123.498-38.341 1.02 13.547.972 114.475c0 20.174 5.284 39.848 15.352 57.221L0 231.004l60.974-15.9C137.06 256.202 230.961 201.629 231 114.532c0-30.569-11.935-59.338-33.639-80.956l.144-.375Zm14.264 81.014c-.057 73.468-80.705 119.35-144.49 81.851l-3.465-2.059-36.094 9.384 9.673-35.083-2.3-3.609c-39.694-63.189 5.91-145.771 81.1-145.771 25.545 0 49.521 9.962 67.577 28.009 18.047 17.893 27.999 41.868 27.999 67.278Z"/><defs><linearGradient id="A" x1="92.603" x2="169.166" y1="144.237" y2="144.95" gradientUnits="userSpaceOnUse"><stop stop-color="#61ffb3"/><stop offset="1" stop-color="#3d9983"/></linearGradient><linearGradient id="B" x1="69.329" x2="220.638" y1="177.968" y2="179.268" gradientUnits="userSpaceOnUse"><stop stop-color="#61ffb3"/><stop offset="1" stop-color="#3d9983"/></linearGradient></defs></svg>