<svg xmlns="http://www.w3.org/2000/svg" width="23" height="35" fill="none" xmlns:v="https://vecta.io/nano"><path fill="url(#A)" fill-rule="evenodd" d="M14.461 34.398c1.752-2.59 1.913-5.388.485-8.393-.398 1.613-1.124 2.591-2.18 2.936.98-2.801.16-5.828-2.46-9.08-.056 3.359-.863 5.805-2.42 7.34-2.147 2.112-2.121 4.495.075 7.15C-1.156 29.499-2.442 22.992 4.1 14.83c.407 1.972 1.39 3.182 2.952 3.632C5.35 11.239 7.142 5.086 12.425 0c.032 11.286 3.493 12.289 7.869 17.327 4.724 6.045 1.948 13.022-5.833 17.071Z"/><defs><linearGradient id="A" x1="6.786" x2="21.597" y1="26.501" y2="26.584" gradientUnits="userSpaceOnUse"><stop stop-color="#6180ff"/><stop offset="1" stop-color="#5fafff"/></linearGradient></defs></svg>