<svg xmlns="http://www.w3.org/2000/svg" width="208" height="208" fill="none" xmlns:v="https://vecta.io/nano"><path fill="url(#A)" d="m60.755 174.99-7.142 10.713h99.994l-7.142-10.713h-85.71Z"/><path fill="url(#B)" d="M157.178 192.846H50.042a3.571 3.571 0 0 0-3.572 3.571v7.143a3.571 3.571 0 0 0 3.572 3.571h107.136a3.571 3.571 0 0 0 3.572-3.571v-7.143a3.571 3.571 0 0 0-3.572-3.571Z"/><path fill="url(#C)" d="M206.015 72.626c-3.465-2.055-8.08-1.041-14.224 3.632a44.128 44.128 0 0 0-4.582 3.964 172.397 172.397 0 0 0 1.984-7.542 35.822 35.822 0 0 0 7.275-19.815c1.3-12.504-1.64-23.124-5.237-24.813-3.673 1.653-6.96 11.272-8.751 22.673a51.02 51.02 0 0 0 .064 19.32c-.023.077-.078.134-.097.214-.594 2.553-1.291 5.111-2.016 7.665a29.772 29.772 0 0 0-1.965-5.617c-3.252-6.93-7.288-9.44-11.131-9.516a2.703 2.703 0 0 0-2.344 1.962 23.752 23.752 0 0 0 1.343 17.092 18.236 18.236 0 0 0 9.24 10.854 170.99 170.99 0 0 1-5.952 14.038 29.553 29.553 0 0 0-1.425-6.776c-2.576-7.605-6.617-10.972-10.762-11.896a2.664 2.664 0 0 0-2.783 1.433 22.433 22.433 0 0 0-.728 17.342 20.674 20.674 0 0 0 8.803 13.071 178.3 178.3 0 0 1-8.114 12.766c.127-2.6-.09-5.206-.647-7.749-1.785-8.204-5.675-12.428-9.968-14.232a2.715 2.715 0 0 0-3.123.86c-2.875 3.774-4.25 9.282-2.837 17.375a23.112 23.112 0 0 0 7.927 15.239c-2.414 2.888-5.962 6.871-8.232 9.392h-5.553v-1.464a11.908 11.908 0 0 0-2.5-7.285 12.066 12.066 0 0 0-6.5-4.214 11.736 11.736 0 0 1-7.713-6.214l-1.143-2.25v-17.856c-.643.429-1.322.821-2 1.214a17.285 17.285 0 0 1-17.428 0c-.678-.393-1.357-.785-2-1.214v17.856l-1.142 2.25a11.739 11.739 0 0 1-7.714 6.214 11.873 11.873 0 0 0-9 11.499v1.464h-5.554l-8.232-9.392a23.111 23.111 0 0 0 7.928-15.237c1.413-8.093.038-13.601-2.837-17.375a2.715 2.715 0 0 0-3.123-.86c-4.293 1.802-8.181 6.028-9.968 14.231a29.538 29.538 0 0 0-.647 7.75 180.813 180.813 0 0 1-8.116-12.769 20.676 20.676 0 0 0 8.804-13.071 22.436 22.436 0 0 0-.728-17.344 2.664 2.664 0 0 0-2.784-1.434c-4.145.924-8.186 4.292-10.761 11.897a29.558 29.558 0 0 0-1.426 6.777 173.659 173.659 0 0 1-5.952-14.04 18.235 18.235 0 0 0 9.24-10.853 23.755 23.755 0 0 0 1.344-17.092 2.705 2.705 0 0 0-2.345-1.962c-3.843.076-7.878 2.586-11.131 9.516a29.734 29.734 0 0 0-1.964 5.617c-.726-2.554-1.423-5.112-2.017-7.665-.018-.08-.074-.136-.097-.214a51.01 51.01 0 0 0 .064-19.32c-1.79-11.4-5.078-21.02-8.75-22.673-3.596 1.69-6.535 12.31-5.235 24.813a35.815 35.815 0 0 0 7.274 19.814 173.357 173.357 0 0 0 1.984 7.543 44.026 44.026 0 0 0-4.582-3.964c-6.143-4.674-10.76-5.687-14.223-3.632a3.664 3.664 0 0 0-1.1 3.588 24.784 24.784 0 0 0 11.003 17.071c5.782 3.763 10.578 3.89 13.964 2.227a179.27 179.27 0 0 0 6.255 14.679 41.346 41.346 0 0 0-6.145-3.381c-7.3-3.298-12.478-3.279-15.932-.482a3.632 3.632 0 0 0-.66 3.8 23.41 23.41 0 0 0 14.32 14.613 15.788 15.788 0 0 0 15.555-.994c2.67 4.6 5.52 9.068 8.523 13.359a40.58 40.58 0 0 0-7.564-2.384c-8.195-1.803-13.739-.691-17.05 2.844a3.617 3.617 0 0 0-.194 3.964 22.723 22.723 0 0 0 17.147 11.795 17.857 17.857 0 0 0 16.54-4.458 257.806 257.806 0 0 0 4.178 4.842 3.52 3.52 0 0 0-2.862 3.428v7.142a3.571 3.571 0 0 0 3.571 3.571h85.71a3.571 3.571 0 0 0 3.571-3.571v-7.142a3.52 3.52 0 0 0-2.862-3.429 264.014 264.014 0 0 0 4.179-4.842 17.855 17.855 0 0 0 16.539 4.459 22.723 22.723 0 0 0 17.147-11.796 3.616 3.616 0 0 0-.194-3.962c-3.312-3.535-8.856-4.648-17.047-2.845a40.634 40.634 0 0 0-7.568 2.385 186.314 186.314 0 0 0 8.527-13.361 15.785 15.785 0 0 0 15.555.995 23.408 23.408 0 0 0 14.32-14.613 3.63 3.63 0 0 0-.66-3.8c-3.454-2.797-8.632-2.816-15.933.482a41.322 41.322 0 0 0-6.147 3.383 179.596 179.596 0 0 0 6.256-14.678c3.387 1.663 8.182 1.535 13.964-2.228a24.784 24.784 0 0 0 11.004-17.07 3.664 3.664 0 0 0-1.101-3.588z"/><path fill="url(#D)" d="M48.256 46.426h6.25c.18-.022.357-.058.53-.107l.005.035a87.403 87.403 0 0 0 43.462 62.961 10.06 10.06 0 0 0 10.214 0 87.402 87.402 0 0 0 43.462-62.96l.004-.036c.174.05.352.085.531.107h6.25c10.843-.012 19.63-8.8 19.642-19.642a19.67 19.67 0 0 0-19.642-19.642h-6.392a3.355 3.355 0 0 0-.599.122l-.009-.05A64.912 64.912 0 0 0 151 2.536 3.356 3.356 0 0 0 147.75 0H59.47a3.357 3.357 0 0 0-3.25 2.536 65.45 65.45 0 0 0-.964 4.678l-.008.05a3.364 3.364 0 0 0-.6-.122h-6.392a19.67 19.67 0 0 0-19.642 19.642 19.67 19.67 0 0 0 19.642 19.642zm110.708-32.141a12.52 12.52 0 0 1 12.499 12.5c-.008 6.899-5.599 12.49-12.499 12.498h-5.821A115.36 115.36 0 0 0 153 14.285h5.964zM39.44 17.936a12.293 12.293 0 0 1 8.816-3.651h5.964a115.342 115.342 0 0 0-.143 24.998h-5.82c-6.9-.008-12.492-5.6-12.5-12.499a12.32 12.32 0 0 1 3.683-8.848z"/><defs><linearGradient id="A" x1="65.435" x2="67.232" y1="176.826" y2="193.806" gradientUnits="userSpaceOnUse"><stop stop-color="#ffd361"/><stop offset=".446" stop-color="#a78e44"/><stop offset=".727" stop-color="#d4a052"/><stop offset="1" stop-color="#ffdc5f"/></linearGradient><linearGradient id="B" x1="59.982" x2="62.765" y1="195.294" y2="217.844" gradientUnits="userSpaceOnUse"><stop stop-color="#ffd361"/><stop offset=".446" stop-color="#a78e44"/><stop offset=".727" stop-color="#d4a052"/><stop offset="1" stop-color="#ffdc5f"/></linearGradient><linearGradient id="C" x1="24.5" x2="127.873" y1="52.009" y2="207.197" gradientUnits="userSpaceOnUse"><stop stop-color="#ffd361"/><stop offset=".446" stop-color="#a78e44"/><stop offset=".727" stop-color="#d4a052"/><stop offset="1" stop-color="#ffdc5f"/></linearGradient><linearGradient id="D" x1="46.348" x2="130.798" y1="18.974" y2="134.854" gradientUnits="userSpaceOnUse"><stop stop-color="#ffd361"/><stop offset=".446" stop-color="#a78e44"/><stop offset=".727" stop-color="#d4a052"/><stop offset="1" stop-color="#ffdc5f"/></linearGradient></defs></svg>