<?xml version="1.0" standalone="no"?>
<!DOCTYPE svg PUBLIC "-//W3C//DTD SVG 20010904//EN"
 "http://www.w3.org/TR/2001/REC-SVG-20010904/DTD/svg10.dtd">
<svg version="1.0" xmlns="http://www.w3.org/2000/svg"
 width="500.000000pt" height="500.000000pt" viewBox="0 0 500.000000 500.000000"
 preserveAspectRatio="xMidYMid meet">
<metadata>
Created by potrace 1.14, written by Peter Selinger 2001-2017
</metadata>
<g transform="translate(0.000000,500.000000) scale(0.100000,-0.100000)"
fill="#000000" stroke="none">
<path d="M4636 4503 c-4 -4 -41 -7 -84 -8 -42 0 -81 -3 -87 -6 -5 -4 -19 -5
-29 -3 -11 1 -28 -2 -38 -7 -12 -7 -18 -6 -18 1 0 6 -5 8 -12 4 -6 -4 -21 -8
-32 -10 -12 -1 -32 -5 -46 -8 -14 -3 -38 -8 -55 -11 -16 -3 -41 -8 -55 -11
-14 -3 -33 -6 -42 -7 -10 -1 -18 -4 -18 -7 0 -3 -8 -6 -17 -6 -30 -2 -64 -11
-148 -39 -44 -15 -86 -28 -92 -28 -7 0 -13 -4 -13 -9 0 -4 -8 -8 -18 -8 -10 0
-23 -5 -29 -11 -6 -6 -17 -11 -24 -13 -18 -2 -192 -87 -199 -96 -5 -7 -40 -23
-53 -24 -4 -1 -12 -8 -17 -16 -5 -8 -10 -11 -10 -7 0 5 -7 1 -16 -7 -8 -9 -20
-14 -25 -11 -5 4 -9 3 -9 -2 0 -13 -51 -68 -61 -66 -5 2 -9 -1 -9 -5 0 -4 -12
-7 -27 -6 -16 1 -34 -3 -40 -9 -7 -5 -13 -6 -13 -3 0 4 -13 -2 -30 -14 -16
-12 -30 -18 -30 -13 0 4 -4 4 -8 -2 -9 -12 -39 -32 -69 -45 -13 -5 -23 -14
-23 -19 0 -5 -8 -11 -17 -15 -18 -5 -53 -26 -63 -36 -13 -13 -120 -90 -125
-90 -3 0 -20 -13 -38 -30 -18 -16 -37 -30 -44 -30 -6 0 -13 -3 -15 -7 -3 -8
-67 -57 -82 -64 -5 -2 -27 -21 -50 -41 -23 -21 -44 -38 -48 -38 -3 0 -25 -18
-47 -40 -23 -23 -41 -38 -41 -34 0 3 -13 -8 -29 -25 -16 -17 -34 -31 -40 -31
-6 0 -11 -5 -11 -10 0 -9 -65 -54 -80 -55 -3 -1 -23 -5 -45 -10 -22 -4 -43 -8
-47 -7 -5 1 -8 -3 -8 -9 0 -5 -4 -8 -8 -5 -8 5 -69 -8 -102 -21 -18 -8 -17 -7
-60 -17 -19 -5 -39 -11 -45 -14 -18 -11 -165 -60 -165 -55 0 3 -7 -1 -16 -8
-9 -7 -23 -14 -32 -15 -8 -2 -19 -9 -23 -16 -5 -7 -9 -9 -9 -5 0 9 -83 -34
-88 -45 -2 -5 -10 -8 -18 -8 -8 0 -17 -7 -20 -15 -4 -8 -10 -12 -15 -9 -5 3
-9 0 -9 -5 0 -6 -7 -11 -16 -11 -8 0 -12 -4 -9 -10 3 -5 2 -10 -3 -10 -5 0
-37 -27 -70 -60 -34 -33 -58 -60 -55 -60 3 0 -3 -8 -13 -17 -11 -10 -41 -47
-67 -83 -26 -36 -53 -72 -60 -80 -7 -8 -26 -36 -43 -62 -16 -27 -32 -48 -36
-48 -5 0 -8 -5 -8 -10 0 -12 -40 -71 -55 -82 -5 -4 -6 -8 -2 -8 4 0 -1 -10
-13 -22 -11 -12 -20 -28 -20 -35 0 -7 -4 -13 -9 -13 -6 0 -20 -18 -32 -40 -13
-22 -27 -40 -31 -40 -5 0 -7 -4 -4 -9 3 -5 -1 -14 -9 -21 -8 -7 -13 -16 -10
-20 3 -4 -2 -11 -11 -14 -8 -3 -13 -10 -10 -15 3 -5 -1 -11 -9 -15 -8 -3 -15
-12 -15 -21 0 -8 -4 -15 -10 -15 -5 0 -12 -11 -16 -25 -3 -14 -10 -22 -15 -19
-5 3 -9 -2 -9 -10 0 -9 -5 -16 -11 -16 -5 0 -8 -4 -5 -8 3 -5 -2 -18 -12 -28
-9 -11 -18 -26 -20 -34 -2 -8 -7 -17 -10 -20 -4 -3 -14 -18 -22 -35 -8 -16
-22 -42 -32 -56 -17 -25 -16 -27 2 -47 16 -17 24 -19 57 -11 21 5 53 12 70 16
20 3 30 10 26 17 -4 6 0 5 9 -2 12 -9 18 -10 23 -2 4 6 13 9 21 6 8 -3 14 -1
14 5 0 6 7 9 15 5 8 -3 15 -2 15 3 0 7 15 11 52 12 10 0 18 4 18 9 0 7 55 23
85 24 6 1 13 4 16 9 3 4 16 10 30 13 13 3 29 7 34 9 39 13 55 17 61 15 4 -1
10 2 13 7 8 12 150 57 179 57 12 0 22 3 22 6 0 5 53 6 69 1 2 -1 -2 -8 -9 -16
-7 -8 -16 -12 -21 -9 -5 3 -9 1 -9 -5 0 -6 -11 -13 -25 -17 -14 -3 -25 -10
-25 -14 0 -4 -12 -11 -26 -14 -14 -4 -31 -11 -37 -16 -33 -28 -117 -79 -117
-73 -1 5 -7 -3 -15 -17 -7 -14 -16 -24 -20 -22 -3 1 -13 -4 -21 -13 -9 -8 -12
-15 -7 -15 4 0 4 -4 -2 -8 -18 -13 -42 -47 -27 -38 11 7 11 4 0 -13 -7 -12
-21 -21 -30 -21 -10 0 -18 -3 -18 -8 0 -4 -21 -19 -47 -32 -27 -14 -50 -28
-53 -31 -11 -12 -99 -69 -107 -69 -4 0 -14 -9 -21 -20 -7 -11 -17 -20 -23 -20
-6 0 -17 -6 -24 -12 -8 -7 -33 -26 -56 -43 -64 -47 -153 -134 -145 -142 4 -4
19 1 34 11 15 9 44 24 65 33 20 9 37 20 37 25 0 5 5 6 10 3 6 -4 19 -1 28 5
38 27 -37 -34 -93 -75 -127 -94 -174 -133 -168 -139 4 -3 2 -6 -4 -6 -11 0
-65 -48 -168 -148 -41 -39 -54 -58 -51 -75 4 -24 -15 -79 -36 -102 -7 -8 -29
-33 -48 -55 -19 -23 -48 -55 -63 -73 -15 -17 -40 -47 -55 -66 -15 -19 -34 -42
-44 -52 -9 -10 -14 -20 -11 -23 4 -3 1 -6 -6 -6 -7 0 -10 -4 -7 -9 3 -4 27 2
53 15 61 29 87 33 88 14 0 -15 -18 -40 -29 -40 -3 0 -14 -7 -23 -15 -10 -8
-22 -16 -28 -17 -5 -1 -22 -15 -38 -31 -15 -15 -27 -25 -27 -22 0 4 -6 0 -14
-7 -8 -7 -27 -23 -43 -35 -47 -36 -80 -68 -92 -90 -24 -46 52 -84 108 -54 15
8 21 9 17 2 -4 -6 18 0 49 14 32 14 61 23 65 20 5 -3 15 2 24 10 8 9 18 15 21
14 3 0 29 9 58 22 29 13 55 22 60 21 4 -1 7 3 7 9 0 5 5 7 10 4 6 -3 10 -1 10
4 0 6 6 11 14 11 8 0 22 7 30 16 9 8 16 12 16 9 0 -4 16 3 36 14 19 12 40 19
45 16 5 -4 9 -2 9 4 0 6 17 18 38 28 20 9 57 30 81 45 25 15 52 28 60 27 11 0
12 -2 3 -6 -6 -2 -10 -9 -6 -14 3 -5 0 -9 -6 -9 -6 0 -18 -6 -25 -14 -25 -24
-1 -27 113 -14 6 1 12 5 12 10 0 5 4 7 8 4 5 -3 20 1 35 9 15 8 27 11 27 7 0
-4 5 1 11 11 6 9 15 14 21 11 6 -4 13 -3 17 2 8 11 94 54 109 54 6 0 12 4 14
10 2 5 13 11 26 13 13 2 31 10 40 18 9 8 21 15 25 16 17 3 183 89 195 100 8 7
18 11 23 8 5 -4 9 -2 9 4 0 10 39 27 53 23 5 -1 6 2 3 7 -6 8 15 20 36 21 4 0
19 12 34 25 15 14 30 22 35 19 5 -3 9 0 9 5 0 6 5 11 11 11 6 0 17 6 24 13 29
26 44 37 49 37 6 0 52 41 150 132 33 32 65 58 69 58 5 0 6 4 3 8 -3 5 4 15 16
23 27 18 54 48 156 168 18 21 34 31 41 26 9 -5 6 -14 -10 -31 -12 -13 -19 -24
-15 -24 5 0 2 -7 -5 -16 -16 -19 -33 -48 -53 -89 -9 -16 -15 -26 -16 -22 0 5
-16 -22 -36 -60 -20 -37 -41 -71 -46 -74 -6 -4 -7 -12 -3 -19 5 -8 4 -11 -2
-7 -6 4 -20 -13 -32 -38 -12 -25 -25 -45 -31 -45 -5 0 -7 -7 -4 -15 4 -8 2
-15 -3 -15 -10 0 -48 -70 -45 -82 1 -5 -2 -8 -8 -8 -5 0 -17 -15 -25 -33 -8
-17 -29 -54 -45 -82 -46 -76 -82 -146 -77 -151 10 -10 47 -12 47 -3 0 5 6 9
13 8 6 -1 38 10 70 24 32 15 62 27 68 27 5 0 21 7 34 16 13 9 30 17 37 18 7 1
23 7 34 14 12 6 24 8 28 5 3 -3 6 -1 6 6 0 7 5 9 10 6 6 -3 10 -1 10 5 0 6 5
8 10 5 6 -3 10 -1 10 4 0 6 3 10 8 9 8 -1 24 5 102 40 30 14 61 24 68 23 6 -1
12 3 12 9 0 5 9 10 20 10 11 0 20 5 20 12 0 6 3 8 7 5 3 -4 17 0 30 8 13 9 23
13 23 10 0 -3 21 6 47 20 27 14 54 25 60 25 7 0 13 5 13 12 0 6 3 9 6 5 4 -3
32 7 64 23 32 16 60 26 64 23 3 -4 6 -2 6 4 0 10 49 33 67 32 3 -1 9 4 13 11
4 6 13 12 21 14 8 1 46 18 84 36 39 19 73 34 78 32 4 -1 7 2 7 7 0 8 37 24 53
22 4 -1 7 4 7 11 0 6 3 8 7 5 3 -4 14 0 24 9 9 8 23 16 31 18 12 1 41 23 74
54 8 7 14 11 14 7 0 -3 10 5 23 18 71 78 85 96 80 101 -4 3 -2 6 4 6 5 0 23
24 38 53 16 28 31 54 34 57 3 3 8 14 9 25 2 11 8 22 13 25 5 3 10 17 11 30 2
13 10 33 18 43 8 9 14 21 13 25 0 4 3 15 9 25 5 10 11 28 14 40 2 12 8 23 13
25 6 2 8 9 5 17 -3 7 -1 16 5 20 6 3 11 15 11 26 0 10 4 19 10 19 5 0 7 7 4
15 -4 8 -1 15 4 15 6 0 9 9 7 20 -2 11 1 20 6 20 6 0 8 4 5 8 -3 5 2 21 10 36
7 16 14 38 14 50 0 13 3 26 8 30 4 4 7 11 7 14 0 9 33 41 78 75 20 15 54 44
74 62 21 19 42 35 46 35 5 0 5 5 2 10 -3 6 -2 10 4 10 5 0 31 20 57 45 25 25
50 45 55 45 5 0 9 7 9 15 0 8 4 15 10 15 12 0 189 176 245 244 22 27 45 54 50
60 42 48 135 166 131 166 -3 0 2 8 12 18 27 29 86 116 84 125 -1 4 2 7 7 7 5
0 13 9 16 20 4 11 10 18 14 16 4 -3 8 0 8 7 0 7 17 39 39 72 21 33 37 63 36
68 -1 4 2 7 6 7 5 0 19 23 32 50 13 28 27 50 32 50 4 0 7 3 6 8 -1 4 13 39 31
77 33 69 91 210 96 230 1 5 8 24 14 40 7 17 15 41 18 55 2 13 9 30 15 37 6 7
8 13 4 13 -3 0 -1 11 4 26 11 28 22 80 24 107 0 9 5 17 10 17 5 0 6 3 3 7 -4
3 -2 12 4 20 9 9 8 13 0 13 -8 0 -9 6 -3 18 9 15 20 70 28 127 1 11 3 21 4 23
1 1 2 14 3 30 0 15 5 30 11 34 8 5 7 8 -1 8 -11 0 -9 42 3 61 2 4 1 10 -4 13
-4 2 -9 19 -10 36 -3 39 -20 57 -58 64 -16 2 -29 5 -29 6 0 3 -50 11 -85 13
-19 1 -40 6 -46 9 -6 4 -14 4 -18 1z"/>
</g>
</svg>
